<svg width="89" height="19" viewBox="0 0 89 19" fill="none" xmlns="http://www.w3.org/2000/svg">
<path d="M5.65909 18L6.66477 14.6591H12.4261L13.4318 18H18.5455L12.7841 0.545454H6.30682L0.545455 18H5.65909ZM7.73864 11.1136L9.47727 5.35227H9.61364L11.3523 11.1136H7.73864ZM17.5227 4.36364H22.7727V18H27.4432V4.36364H32.6932V0.545454H17.5227V4.36364ZM38.9531 18.2386C43.2145 18.2386 45.7372 15.5114 45.7372 11.4886C45.7372 7.46591 43.2145 4.73864 38.9531 4.73864C34.6918 4.73864 32.169 7.46591 32.169 11.4886C32.169 15.5114 34.6918 18.2386 38.9531 18.2386ZM38.9872 14.7614C37.7259 14.7614 36.9759 13.5085 36.9759 11.4545C36.9759 9.40057 37.7259 8.14773 38.9872 8.14773C40.1804 8.14773 40.9304 9.40057 40.9304 11.4545C40.9304 13.5085 40.1804 14.7614 38.9872 14.7614ZM53.9531 18.2386C58.2145 18.2386 60.7372 15.5114 60.7372 11.4886C60.7372 7.46591 58.2145 4.73864 53.9531 4.73864C49.6918 4.73864 47.169 7.46591 47.169 11.4886C47.169 15.5114 49.6918 18.2386 53.9531 18.2386ZM53.9872 14.7614C52.7259 14.7614 51.9759 13.5085 51.9759 11.4545C51.9759 9.40057 52.7259 8.14773 53.9872 8.14773C55.1804 8.14773 55.9304 9.40057 55.9304 11.4545C55.9304 13.5085 55.1804 14.7614 53.9872 14.7614ZM67.3509 0.545454H62.6463V18H67.3509V0.545454ZM81.7138 9.17045C81.5945 6.40057 79.2933 4.73864 75.5092 4.73864C71.7678 4.73864 69.4581 6.27273 69.4751 9C69.4581 11.0625 70.7962 12.3835 73.4638 12.8523L75.782 13.2614C76.8047 13.4489 77.2649 13.7216 77.282 14.2159C77.2649 14.7614 76.6428 15.0682 75.782 15.0682C74.7166 15.0682 73.9666 14.608 73.8388 13.7727H69.1683C69.424 16.4574 71.7422 18.2386 75.7479 18.2386C79.37 18.2386 82.0376 16.4744 82.0547 13.6705C82.0376 11.7358 80.7422 10.6108 78.0661 10.125L75.407 9.64773C74.4098 9.46875 74.1286 9.1108 74.1456 8.72727C74.1286 8.18182 74.8018 7.875 75.6115 7.875C76.5405 7.875 77.3161 8.36932 77.3842 9.17045H81.7138Z" fill="#023047"/>
<path d="M86.4141 18.2727C87.6669 18.2727 88.7834 17.2159 88.8004 15.8864C88.7834 14.5909 87.6669 13.5341 86.4141 13.5341C85.093 13.5341 84.0107 14.5909 84.0277 15.8864C84.0107 17.2159 85.093 18.2727 86.4141 18.2727Z" fill="#FB8500"/>
</svg>
